HIERARCHY
ROOT RootJoint
{
    OFFSET   0.000000   0.000000   0.000000
    CHANNELS 6 Xposition Yposition Zposition Xrotation Yrotation Zrotation
    JOINT pelvis_lowerback
    {
        OFFSET   0.000000   0.093605   0.000000
        CHANNELS 3 Xrotation Yrotation Zrotation
        JOINT lowerback_torso
        {
            OFFSET   0.000000   0.100000   0.000000
            CHANNELS 3 Xrotation Yrotation Zrotation
            JOINT torso_head
            {
                OFFSET   0.000000   0.282350   0.000000
                CHANNELS 3 Xrotation Yrotation Zrotation
                End Site
                {
                    OFFSET   0.000000   0.192650   0.000000
                }
            }
            JOINT rTorso_Clavicle
            {
                OFFSET  -0.001000   0.157500   0.000000
                CHANNELS 3 Xrotation Yrotation Zrotation
                JOINT rShoulder
                {
                    OFFSET  -0.117647   0.000000   0.000000
                    CHANNELS 3 Xrotation Yrotation Zrotation
                    JOINT rElbow
                    {
                        OFFSET  -0.245000   0.000000   0.000000
                        CHANNELS 3 Xrotation Yrotation Zrotation
                        JOINT rWrist
                        {
                            OFFSET  -0.240000   0.000000   0.000000
                            CHANNELS 3 Xrotation Yrotation Zrotation
                            End Site
                            {
                                OFFSET  -0.116353  -0.002500   0.000000
                            }
                        }
                    }
                }
            }
            JOINT lTorso_Clavicle
            {
                OFFSET   0.001000   0.157500   0.000000
                CHANNELS 3 Xrotation Yrotation Zrotation
                JOINT lShoulder
                {
                    OFFSET   0.117647   0.000000   0.000000
                    CHANNELS 3 Xrotation Yrotation Zrotation
                    JOINT lElbow
                    {
                        OFFSET   0.245000   0.000000   0.000000
                        CHANNELS 3 Xrotation Yrotation Zrotation
                        JOINT lWrist
                        {
                            OFFSET   0.240000   0.000000   0.000000
                            CHANNELS 3 Xrotation Yrotation Zrotation
                            End Site
                            {
                                OFFSET   0.116353  -0.002500   0.000000
                            }
                        }
                    }
                }
            }
        }
    }
    JOINT rHip
    {
        OFFSET  -0.100000  -0.051395   0.000000
        CHANNELS 3 Xrotation Yrotation Zrotation
        JOINT rKnee
        {
            OFFSET   0.000000  -0.410000   0.000000
            CHANNELS 3 Xrotation Yrotation Zrotation
            JOINT rAnkle
            {
                OFFSET   0.000000  -0.390000   0.000000
                CHANNELS 3 Xrotation Yrotation Zrotation
                JOINT rToeJoint
                {
                    OFFSET   0.000000  -0.050000   0.130000
                    CHANNELS 3 Xrotation Yrotation Zrotation
                    End Site
                    {
                        OFFSET  -0.010000   0.002000   0.060000
                    }
                }
            }
        }
    }
    JOINT lHip
    {
        OFFSET   0.100000  -0.051395   0.000000
        CHANNELS 3 Xrotation Yrotation Zrotation
        JOINT lKnee
        {
            OFFSET   0.000000  -0.410000   0.000000
            CHANNELS 3 Xrotation Yrotation Zrotation
            JOINT lAnkle
            {
                OFFSET   0.000000  -0.390000   0.000000
                CHANNELS 3 Xrotation Yrotation Zrotation
                JOINT lToeJoint
                {
                    OFFSET   0.000000  -0.050000   0.130000
                    CHANNELS 3 Xrotation Yrotation Zrotation
                    End Site
                    {
                        OFFSET   0.010000   0.002000   0.060000
                    }
                }
            }
        }
    }
}
MOTION
Frames: 11
Frame Time:   0.008333
 -2.392941   0.862325   3.635619  -2.732678   4.997182  -0.865731   0.461426  -2.843215  -3.371840   0.884794  -6.560947   1.317409  -1.735541  -1.484507   3.087757   2.958349  -3.033205   9.330093   4.768722   8.606552  43.216813  -0.002002  32.419284   0.003193   3.793419   3.454304  -2.103850   2.728920  -3.597946  -9.077744  -0.257972 -16.467157 -45.223538  -0.002161 -22.675560   0.002929   3.678242  -4.439039   0.033535 -23.795474   1.389396  -1.419907   9.371193  -0.012409   0.003185  12.693919  -5.915441   5.258781   0.787407  -0.003638  -0.000446   8.746896  -3.185976   2.813206  34.269743  -0.014893  -0.000123 -25.124742  -4.544343  -0.585472 -13.980016   0.032051  -0.000959
 -2.391112   0.860151   3.624126  -2.615160   4.674017  -0.547127   0.926290  -2.659657  -3.455366   0.736890  -6.464472   1.087550  -1.875780  -1.459534   2.863285   2.990743  -2.844889   9.386464   4.999030   8.611293  43.139077  -0.002993  32.000321   0.005207   3.861719   3.509283  -2.185107   2.454285  -3.692375  -9.061062  -0.353609 -16.772103 -44.893302  -0.002083 -23.118914   0.003769   3.674232  -4.402980   0.121488 -24.755535   1.332152  -1.902690   9.662262  -0.009282   0.001205  11.086822  -6.229975   5.554538   0.935109  -0.003436  -0.001232   8.456181  -2.808570   2.279030  33.278806  -0.013562  -0.000418 -25.011956  -4.661538  -0.314375 -20.338520   0.034826   0.007192
 -2.389324   0.857980   3.612871  -2.590690   4.322117  -0.267288   1.427094  -2.469370  -3.482085   0.659628  -6.344689   0.890800  -1.995174  -1.433462   2.635787   3.010511  -2.634594   9.466084   5.208997   8.624780  43.064150  -0.003987  31.593891   0.006758   3.932069   3.453137  -2.229540   2.183656  -3.795169  -9.074836  -0.455138 -17.069838 -44.592493  -0.001912 -23.541042   0.004417   3.673163  -4.416308   0.224377 -25.659771   1.240261  -2.295848  10.265038  -0.006330  -0.002126   9.655638  -6.541932   5.844812   0.924317  -0.002715  -0.000904   8.191504  -2.456926   1.786958  32.416929  -0.012015  -0.000224 -24.938875  -4.784051  -0.060239 -26.399239   0.033825   0.017304
 -2.387421   0.857660   3.602759  -2.712441   3.796516   0.300602   1.876628  -2.224560  -3.737026   0.638401  -6.179021   0.622897  -2.096421  -1.405578   2.416373   3.054165  -2.441407   9.692097   5.419594   8.635553  43.054898  -0.005199  31.196368   0.007380   4.001866   3.315674  -2.213910   1.989530  -3.843276  -9.181226  -0.501769 -17.305348 -44.321958  -0.001432 -23.906027   0.004627   3.673977  -4.338831   0.324512 -26.278107   1.171235  -2.841960  10.886782  -0.004361  -0.006288   8.327087  -6.837500   6.110857   0.946602  -0.002262  -0.000910   7.925740  -1.975675   0.957474  32.107876  -0.010107  -0.000069 -26.074739  -4.809087  -0.006391 -23.744557   0.027505   0.012197
 -2.385611   0.858420   3.593335  -2.833799   3.288681   0.816659   2.262880  -2.014332  -3.899449   0.609325  -6.031402   0.378812  -2.197825  -1.380374   2.204597   3.108182  -2.269343   9.907355   5.624864   8.645125  43.068746  -0.006141  30.827183   0.007417   4.066020   3.181201  -2.127161   1.837197  -3.879970  -9.314247  -0.532018 -17.524544 -44.119306  -0.000997 -24.245683   0.004758   3.671716  -4.242166   0.328339 -26.790078   1.089145  -3.283954  11.505976  -0.003194  -0.009439   7.089210  -7.120552   6.351865   0.970414  -0.001904  -0.000922   7.665632  -1.504691   0.192125  31.753893  -0.008629   0.000082 -26.541740  -4.833806   0.088346 -21.009331   0.022269   0.008429
 -2.383929   0.859819   3.584320  -2.929115   2.836862   1.255669   2.610470  -1.839627  -3.975437   0.568350  -5.911023   0.187091  -2.298158  -1.357559   2.012141   3.159871  -2.111487  10.091763   5.817585   8.653804  43.081596  -0.006763  30.485454   0.007180   4.126459   3.064762  -2.020414   1.695366  -3.924232  -9.443426  -0.564165 -17.739459 -43.951402  -0.000750 -24.568174   0.004848   3.668604  -4.167010   0.272584 -27.254915   1.006475  -3.629333  12.109280  -0.002527  -0.011384   5.934691  -7.388889   6.570444   0.990785  -0.001602  -0.000887   7.402114  -1.078236  -0.473032  31.340433  -0.007488   0.000220 -26.650975  -4.857685   0.192480 -18.487382   0.017949   0.005771
 -2.382369   0.861587   3.575567  -2.998285   2.443365   1.631658   2.935037  -1.692774  -3.988287   0.521033  -5.813609   0.044008  -2.393756  -1.336471   1.838661   3.203869  -1.962556  10.245118   5.994758   8.663228  43.087192  -0.007109  30.169526   0.006831   4.184158   2.967216  -1.918598   1.550326  -3.979775  -9.553233  -0.604724 -17.952188 -43.797239  -0.000702 -24.876194   0.004890   3.665624  -4.125082   0.202230 -27.693012   0.927908  -3.906617  12.685843  -0.002148  -0.012329   4.857442  -7.642603   6.768778   1.007702  -0.001343  -0.000820   7.133715  -0.697639  -1.051814  30.876653  -0.006598   0.000328 -26.549512  -4.883210   0.295401 -16.171224   0.014418   0.003908
 -2.380676   0.863394   3.566632  -3.055143   2.023861   2.086624   3.303699  -1.587504  -4.011518   0.473831  -5.693560  -0.140465  -2.518870  -1.420995   1.576101   3.243987  -1.639893  10.417236   6.163242   8.839258  43.013309  -0.009846  29.509719   0.009418   4.250144   2.941137  -1.825380   1.330403  -4.088390  -9.641148  -0.532109 -18.070989 -43.586381  -0.000603 -24.955031   0.004238   3.663103  -4.314165   0.138795 -28.688950   0.878332  -4.266761  15.169023  -0.002219  -0.025531   3.627888  -7.997548   6.703239   0.931937  -0.001098   0.000070   6.781426  -0.462219  -1.769056  30.501513  -0.005655   0.000962 -26.264151  -4.792091   0.515111 -13.935869   0.010783   0.001265
 -2.379033   0.865287   3.557928  -3.118737   1.699246   2.485703   3.666844  -1.508537  -3.971924   0.460277  -5.583831  -0.289704  -2.634057  -1.506907   1.321881   3.274301  -1.320425  10.577107   6.318611   9.007665  42.934337  -0.011942  28.881474   0.011469   4.316013   2.818955  -1.705059   1.134403  -4.188091  -9.719713  -0.452762 -18.171216 -43.381530  -0.000533 -25.015353   0.003624   3.663762  -4.430920   0.070423 -29.572964   0.826593  -4.620343  17.757526  -0.002838  -0.034432   2.501068  -8.333308   6.632638   0.920962  -0.000889   0.000153   6.441304  -0.258471  -2.400841  30.124452  -0.004949   0.001311 -25.908921  -4.701390   0.750160 -12.918314   0.007952   0.000634
 -2.377471   0.867197   3.549395  -3.150615   1.427600   2.838756   4.004673  -1.422410  -3.898763   0.454370  -5.470921  -0.400678  -2.740226  -1.587008   1.087293   3.300278  -1.019597  10.724070   6.462639   9.166253  42.859817  -0.013397  28.295170   0.012944   4.379168   2.686102  -1.580291   0.958807  -4.272086  -9.784245  -0.371617 -18.257644 -43.185546  -0.000489 -25.068077   0.003080   3.664882  -4.513775   0.002706 -30.343363   0.781095  -4.958675  20.232687  -0.003658  -0.039329   1.452713  -8.645388   6.559589   0.926690  -0.000704   0.000075   6.081277  -0.080575  -2.965337  29.731931  -0.004391   0.001546 -25.521621  -4.625233   0.992050 -12.012483   0.005617   0.000212
 -2.375994   0.869070   3.540978  -3.144973   1.187708   3.155579   4.321390  -1.323350  -3.804810   0.449669  -5.349443  -0.480624  -2.839470  -1.660953   0.871117   3.319688  -0.733592  10.860183   6.593843   9.318005  42.790620  -0.014307  27.749932   0.013934   4.440192   2.564976  -1.456299   0.799581  -4.341427  -9.832821  -0.290425 -18.331504 -42.994956  -0.000460 -25.114691   0.002607   3.665836  -4.575772  -0.054535 -31.017955   0.740557  -5.281429  22.565915  -0.004443  -0.041523   0.474188  -8.935183   6.485174   0.934819  -0.000552  -0.000002   5.695338   0.081475  -3.477233  29.324969  -0.003937   0.001717 -25.124357  -4.555759   1.231324 -11.171924   0.003739  -0.000069
